<svg width="34" height="39" viewBox="0 0 34 39" fill="none" xmlns="http://www.w3.org/2000/svg">
<path fill-rule="evenodd" clip-rule="evenodd" d="M8.04255 22.1142L8.09729 21.269L8.15042 19.5511C8.28405 15.5181 8.42412 11.3 7.50321 11.242C7.4203 11.2374 7.33731 11.2496 7.25922 11.2779C7.18112 11.3061 7.1095 11.3497 7.04865 11.4062C6.98779 11.4627 6.93894 11.5309 6.90501 11.6067C6.87108 11.6825 6.85277 11.7643 6.85117 11.8474C6.54688 13.9371 5.11722 27.725 7.05724 27.725C7.71734 27.725 7.727 27.5237 7.90409 24.4245L7.96527 23.378C11.5877 23.8369 15.2376 24.0429 18.889 23.9979C20.8645 24.1215 22.8218 23.5571 24.4282 22.4007C26.0346 21.2443 27.1908 19.5672 27.7004 17.6546C28.0981 15.6984 28.1705 13.6892 27.9145 11.7105C27.8791 11.547 27.7825 11.4032 27.6447 11.3084C27.5068 11.2136 27.3379 11.1751 27.1726 11.2005C27.0072 11.226 26.8578 11.3136 26.7549 11.4455C26.6519 11.5774 26.6031 11.7435 26.6185 11.9101C26.6533 13.6603 26.4353 15.4064 25.9713 17.0943C24.2808 22.053 20.3734 22.0675 14.2732 22.0852C13.3748 22.0884 12.4281 22.09 11.4348 22.1094C11.1063 22.1094 10.7425 22.1158 10.3658 22.1222C9.59618 22.1351 8.76865 22.1496 8.04255 22.1142Z" fill="white"/>
<path fill-rule="evenodd" clip-rule="evenodd" d="M7.63026 0.239435C6.52385 0.124006 5.40684 0.310425 4.39789 0.778889C3.38893 1.24735 2.52571 1.98037 1.89992 2.90006C1.27413 3.81976 0.909143 4.89179 0.843735 6.00227C0.778327 7.11276 1.01494 8.22022 1.52843 9.20702C6.22474 17.793 18.9098 9.11042 11.5232 2.15048C11.5135 2.15692 9.63468 0.448733 7.63026 0.239435ZM10.5878 3.06978C15.7768 8.74335 6.45014 13.8888 3.30263 8.22816C1.40286 4.81339 5.50025 -0.386847 10.5878 3.06978ZM7.16497 26.6029C6.11049 26.4224 5.02714 26.521 4.02257 26.8889C3.018 27.2568 2.12718 27.8811 1.43862 28.6999C0.750071 29.5187 0.287754 30.5034 0.0976122 31.5562C-0.0925299 32.6089 -0.003878 33.6931 0.354759 34.7011C0.811579 35.7141 1.51367 36.5972 2.39756 37.2707C3.28146 37.9442 4.31927 38.3868 5.41717 38.5584C6.51507 38.73 7.63844 38.6253 8.68571 38.2537C9.73298 37.8822 10.6711 37.2554 11.4153 36.4302C12.2436 35.6162 12.8063 34.5708 13.0296 33.4312C13.253 32.2916 13.1265 31.1112 12.6668 30.0448C12.2071 28.9784 11.4356 28.0759 10.4537 27.4559C9.47185 26.8359 8.32542 26.5273 7.16497 26.5707V26.6029ZM7.09735 27.8812C7.93334 27.8863 8.74857 28.142 9.43763 28.6154C10.1267 29.0888 10.6579 29.758 10.9625 30.5365C11.2672 31.3151 11.3313 32.1671 11.1465 32.9824C10.9617 33.7977 10.5366 34.5389 9.92609 35.11C9.39584 35.6692 8.73829 36.092 8.00942 36.3424C7.28056 36.5927 6.50199 36.6631 5.74003 36.5477C4.97807 36.4323 4.2553 36.1344 3.63328 35.6794C3.01126 35.2245 2.50842 34.6259 2.1676 33.9347C1.91473 33.1937 1.85408 32.4007 1.99134 31.6299C2.1286 30.8591 2.45927 30.1357 2.95238 29.5276C3.44548 28.9194 4.08489 28.4464 4.81069 28.1528C5.5365 27.8592 6.32495 27.7547 7.10218 27.849L7.09735 27.8812ZM24.5383 0.440683C23.0063 1.02762 21.7461 2.16148 21.0013 3.62323C20.2564 5.08499 20.0797 6.77091 20.5053 8.35534C21.0342 9.62443 21.9178 10.7141 23.0504 11.4936C24.1829 12.2732 25.5162 12.7096 26.8904 12.7506C27.7495 12.8482 28.6193 12.7704 29.4474 12.522C30.2755 12.2735 31.0445 11.8596 31.7079 11.3053C32.3713 10.7509 32.9153 10.0677 33.3069 9.29693C33.6986 8.52618 33.9297 7.68397 33.9863 6.82129C34.0429 5.95861 33.9238 5.09341 33.6362 4.27811C33.3487 3.4628 32.8986 2.71434 32.3133 2.07806C31.728 1.44178 31.0197 0.930915 30.2312 0.57641C29.4427 0.221904 28.5904 0.0311328 27.726 0.0156483C27.726 0.0269181 26.0742 -0.14696 24.5383 0.440683ZM27.6552 1.331C28.5925 1.29314 29.5184 1.54865 30.3036 2.06193C30.946 2.56181 31.4537 3.21392 31.7808 3.9593C32.1078 4.70468 32.2439 5.51982 32.1768 6.33103C32.1097 7.14224 31.8415 7.92393 31.3963 8.60541C30.9512 9.2869 30.3432 9.8467 29.6274 10.2342C28.3146 10.841 26.8166 10.9102 25.4534 10.4271C24.0903 9.94389 22.9702 8.94668 22.3326 7.64856C22.0475 6.46684 22.1894 5.22237 22.7333 4.1352C23.2772 3.04802 24.188 2.18819 25.3046 1.70774C25.5171 1.61597 26.4091 1.331 27.6552 1.331Z" fill="white"/>
</svg>
